# xmcd
#
# Track frame offsets: 
#        150
#        22637
#        59916
#        78432
#        109916
#        138643
#        162635
#        178092
#
# Disc length: 2658 seconds
#
# Revision: 0
# Processed by: cddbd v1.5.2PL0 Copyright (c) Steve Scherf et al.
# Submitted via: ExactAudioCopy v1.0b4
#
DISCID=6e0a6008
DTITLE=Chicago Beau - Black Names Ringing
DYEAR=2016
DGENRE=Blues
TTITLE0=Black Names Ringing
TTITLE1=My Ancestors
TTITLE2=Be Careful How You Vote
TTITLE3=I Am A Black Snake
TTITLE4=You Can't Send The Children To School
TTITLE5=Tribute To Elmore And JB
TTITLE6=Hangover
TTITLE7=First Thing On My Mind Is You
EXTD=
EXTT0=
EXTT1=
EXTT2=
EXTT3=
EXTT4=
EXTT5=
EXTT6=
EXTT7=
PLAYORDER=
